:SAMPLES-PER-SECOND 30
:FULLY-SPECIFIED
:DEGREES
298
root  7.9369 38.8109 -5.06995 7.4279 75.6062 7.95288
RightUpLeg  -24.384 -5.48405 -3.4617
RightLeg  -0.896153 -7.88302 4.86717
RightFoot  -0.200297 -0.603693 6.16547
RightToes  0.000482159 0.542163 -0.142577
Spine  13.9311 -2.18886 -4.45319
Spine1  9.04574 -3.29059 1.2756
HEad  14.353 9.07906 -4.88018
LeftShoulder1  8.65807 -12.3342 -47.711
LeftArm  -2.04762 6.75151 -25.6484
LeftForeArm  20.0918 -18.2886 -4.76304
LeftHand  -0.25398 0.0180481 5.50724
RightShoulder  5.75377 9.86443 37.031
RightArm  -4.51692 -21.1032 36.0413
RightForeArm  11.5886 11.6559 7.00532
RightHand  -0.328402 -1.58324 -9.7577
LeftUpLeg  13.5649 6.75005 -1.06998
LeftLeg  10.386 21.3872 -2.15934
LeftFoot  -22.6032 -0.403222 -5.45554
LeftToes  1.06245e-005 4.65856e-005 -8.18503e-006
299
root  9.06293 38.4787 -4.80033 7.40074 76.8641 8.2166
RightUpLeg  -25.4559 -6.25908 -3.41799
RightLeg  2.7139 -8.40442 4.19184
RightFoot  0.147977 -0.599573 5.95564
RightToes  0.000482159 0.542163 -0.142577
Spine  15.238 -2.56352 -3.66186
Spine1  9.23563 -3.76813 1.61614
HEad  13.4696 8.4313 -5.41613
LeftShoulder1  8.74064 -12.448 -47.825
LeftArm  -2.44229 5.64173 -26.4086
LeftForeArm  19.5629 -19.3821 -4.42789
LeftHand  -0.25398 0.0180481 5.50724
RightShoulder  5.72144 9.89125 36.7131
RightArm  -6.80631 -22.3054 35.7684
RightForeArm  12.2623 10.465 6.81053
RightHand  -0.286146 -2.08094 -9.62952
LeftUpLeg  15.4933 7.4833 -0.197897
LeftLeg  11.2367 19.1478 -1.73777
LeftFoot  -23.8074 -0.555583 -6.40022
LeftToes  1.06245e-005 4.65856e-005 -8.18503e-006
300
root  10.2961 38.1898 -4.46072 4.26431 78.8105 5.10657
RightUpLeg  -26.6312 -9.46296 -1.31028
RightLeg  8.36847 -7.85831 2.57335
RightFoot  1.31178 -0.409464 3.81879
RightToes  0.000482159 0.542163 -0.142577
Spine  16.274 -3.20748 -2.22167
Spine1  9.5217 -4.60362 2.5293
HEad  12.6952 7.80125 -5.96044
LeftShoulder1  8.77643 -12.5495 -47.716
LeftArm  -2.67592 5.23026 -27.5107
LeftForeArm  18.7662 -20.8257 -4.13614
LeftHand  -0.25398 0.0180481 5.50724
RightShoulder  5.67008 9.8979 36.3192
RightArm  -7.92926 -23.1492 35.297
RightForeArm  13.0362 9.80925 6.597
RightHand  -0.244803 -2.48139 -9.20789
LeftUpLeg  17.0376 9.24907 1.96093
LeftLeg  12.8193 15.5803 -0.502681
LeftFoot  -24.486 -0.640351 -6.81643
LeftToes  1.06245e-005 4.65856e-005 -8.18503e-006
301
root  11.6038 37.9833 -4.07356 -3.62901 80.7555 -2.94115
RightUpLeg  -27.9984 -14.3111 2.56164
RightLeg  13.7714 -5.23852 0.482344
RightFoot  3.64429 0.0280681 0.00469331
RightToes  0.000482159 0.542163 -0.142577
Spine  17.3349 -3.9752 0.0791731
Spine1  9.6947 -5.4413 3.56269
HEad  12.0589 7.25905 -6.602
LeftShoulder1  8.7593 -12.5841 -47.5176
LeftArm  -2.91546 5.43544 -28.6122
LeftForeArm  18.609 -22.5769 -4.00086
LeftHand  -0.25398 0.0180481 5.50724
RightShoulder  5.61547 9.82759 36.1377
RightArm  -8.42304 -23.5007 34.5036
RightForeArm  13.686 9.63326 6.41217
RightHand  -0.231098 -2.51281 -8.74743
LeftUpLeg  17.9551 11.9582 5.3316
LeftLeg  15.4062 9.87419 1.23694
LeftFoot  -24.6798 -0.956956 -9.40027
LeftToes  1.06245e-005 4.65856e-005 -8.18503e-006
302
root  12.9574 37.8216 -3.65503 -14.2005 81.6125 -13.4439
RightUpLeg  -29.2336 -17.3187 5.78709
RightLeg  18.9104 -2.64806 -0.991971
RightFoot  5.39188 0.567622 -3.63536
RightToes  0.000482159 0.542163 -0.142577
Spine  18.7418 -4.54648 2.85656
Spine1  9.77289 -5.71433 4.06209
HEad  11.5193 6.88851 -7.34163
LeftShoulder1  8.76883 -12.63 -47.4327
LeftArm  -3.54842 5.95872 -29.2924
LeftForeArm  19.1189 -24.1038 -4.13519
LeftHand  -0.25398 0.0180481 5.50724
RightShoulder  5.61779 9.80969 36.2096
RightArm  -9.19327 -23.2033 33.7219
RightForeArm  13.5236 9.69337 6.19189
RightHand  -0.249544 -2.22485 -8.68302
LeftUpLeg  17.5976 12.7819 8.28184
LeftLeg  20.6134 5.75463 2.90816
LeftFoot  -23.3641 -1.46535 -15.4101
LeftToes  1.06245e-005 4.65856e-005 -8.18503e-006
303
root  14.3036 37.684 -3.21117 -21.8428 81.4045 -20.817
RightUpLeg  -29.4598 -17.0195 6.81752
RightLeg  23.8244 -2.58844 -1.516
RightFoot  4.69019 0.881354 -6.04602
RightToes  0.000482159 0.542163 -0.142577
Spine  20.1563 -4.84819 5.48811
Spine1  10.0738 -5.35023 3.80362
HEad  11.1022 6.58168 -7.85341
LeftShoulder1  8.81296 -12.7655 -47.2723
LeftArm  -4.06733 6.38621 -29.6088
LeftForeArm  19.0048 -24.7353 -4.29155
LeftHand  -0.25398 0.0180481 5.50724
RightShoulder  5.69179 9.98511 36.21
RightArm  -10.5719 -22.0933 33.5659
RightForeArm  12.519 9.7591 5.92602
RightHand  -0.258119 -2.14776 -8.80523
LeftUpLeg  14.5915 10.199 9.52703
LeftLeg  30.4048 7.50887 5.17593
LeftFoot  -17.5509 -0.972228 -19.5283
LeftToes  1.06245e-005 4.65856e-005 -8.18503e-006
304
root  15.5753 37.5966 -2.77136 -26.7657 80.8672 -25.6419
RightUpLeg  -28.9958 -16.9021 7.64759
RightLeg  27.7267 -2.82304 -1.84829
RightFoot  1.67756 0.859283 -7.41
RightToes  0.000482159 0.542163 -0.142577
Spine  21.1482 -5.02425 7.98242
Spine1  10.7305 -4.70907 3.06772
HEad  10.8328 6.04699 -7.82425
LeftShoulder1  8.84332 -12.9723 -46.8316
LeftArm  -4.03527 6.36073 -29.8256
LeftForeArm  18.06 -24.3069 -4.24951
LeftHand  -0.25398 0.0180481 5.50724
RightShoulder  5.76774 10.2706 35.8938
RightArm  -11.692 -19.9978 34.0508
RightForeArm  11.3595 9.93721 5.77476
RightHand  -0.234051 -2.44054 -8.65478
LeftUpLeg  8.59524 9.0538 10.3272
LeftLeg  43.2647 9.29743 9.65123
LeftFoot  -5.95056 0.633385 -15.0304
LeftToes  1.06245e-005 4.65856e-005 -8.18503e-006
305
root  16.719 37.5066 -2.38816 -32.587 80.241 -31.6631
RightUpLeg  -28.462 -17.3566 8.88109
RightLeg  30.7163 -2.94198 -2.13743
RightFoot  -2.00998 0.615155 -7.65094
RightToes  0.000482159 0.542163 -0.142577
Spine  21.8652 -5.25517 10.7772
Spine1  11.5157 -4.02718 2.42862
HEad  10.6327 5.19307 -7.42653
LeftShoulder1  8.88493 -13.1867 -46.4377
LeftArm  -3.7199 5.82166 -29.8672
LeftForeArm  17.4415 -23.317 -4.10171
LeftHand  -0.25398 0.0180481 5.50724
RightShoulder  5.7912 10.486 35.4255
RightArm  -11.3303 -16.8053 34.3772
RightForeArm  10.5164 10.6411 5.8951
RightHand  -0.221665 -2.50676 -8.35222
LeftUpLeg  0.68725 7.96973 10.7159
LeftLeg  55.3209 8.12642 12.7622
LeftFoot  4.8691 0.678216 -4.64281
LeftToes  1.06245e-005 4.65856e-005 -8.18503e-006
306
root  17.8593 37.5673 -2.01793 -35.1985 79.5589 -34.4291
RightUpLeg  -27.1394 -17.5456 9.51734
RightLeg  32.1729 -2.68087 -2.08072
RightFoot  -4.70819 0.370703 -6.93091
RightToes  0.000482159 0.542163 -0.142577
Spine  22.5862 -5.17932 12.5901
Spine1  12.0493 -3.33024 2.12742
HEad  10.4109 4.30704 -7.11233
LeftShoulder1  8.99986 -13.3755 -46.5146
LeftArm  -3.58698 5.09758 -29.5208
LeftForeArm  17.6866 -22.4269 -4.02758
LeftHand  -0.25398 0.0180481 5.50724
RightShoulder  5.80611 10.6193 35.1454
RightArm  -9.18489 -12.604 33.8596
RightForeArm  9.38262 12.2258 6.1305
RightHand  -0.273315 -1.8542 -8.61441
LeftUpLeg  -6.81025 7.26063 10.4701
LeftLeg  63.6615 4.98954 11.4347
LeftFoot  7.80616 -0.181563 0.950596
LeftToes  1.06245e-005 4.65856e-005 -8.18503e-006
307
root  19.0672 37.8494 -1.60899 -32.3057 79.1229 -31.5026
RightUpLeg  -24.6457 -17.1216 8.97042
RightLeg  31.9682 -2.35493 -1.84762
RightFoot  -6.3798 0.223604 -6.16096
RightToes  0.000482159 0.542163 -0.142577
Spine  23.2635 -4.63796 12.5166
Spine1  12.3563 -2.71564 2.13362
HEad  10.1622 3.71435 -7.02394
LeftShoulder1  9.1432 -13.5329 -46.8277
LeftArm  -3.63376 4.62386 -28.9806
LeftForeArm  18.0391 -21.9696 -4.0212
LeftHand  -0.25398 0.0180481 5.50724
RightShoulder  5.86998 10.7659 35.1697
RightArm  -6.17471 -7.67655 32.6597
RightForeArm  7.03725 14.5487 6.10716
RightHand  -0.400191 -0.737979 -9.87178
LeftUpLeg  -13.0719 7.36074 9.42337
LeftLeg  67.6612 2.5527 7.65037
LeftFoot  4.83009 -0.00428538 -0.296091
LeftToes  1.06245e-005 4.65856e-005 -8.18503e-006
308
root  20.2728 38.155 -1.19741 -28.4084 78.907 -27.6203
RightUpLeg  -21.9036 -16.5446 8.12823
RightLeg  31.2212 -2.43346 -1.85149
RightFoot  -8.10271 0.109277 -5.79537
RightToes  0.000482159 0.542163 -0.142577
Spine  23.6858 -4.06393 11.8737
Spine1  12.6285 -2.29461 2.27238
HEad  9.89404 3.42745 -6.96269
LeftShoulder1  9.19816 -13.6442 -46.8031
LeftArm  -3.74012 4.53268 -28.639
LeftForeArm  18.1099 -21.8867 -4.02172
LeftHand  -0.25398 0.0180481 5.50724
RightShoulder  5.93707 10.8817 35.3027
RightArm  -3.66635 -2.36059 31.4091
RightForeArm  3.73799 16.9634 5.78424
RightHand  -0.589988 0.469045 -11.7466
LeftUpLeg  -18.5168 7.94974 8.10839
LeftLeg  67.6328 1.48409 4.76775
LeftFoot  1.31671 0.417957 -3.77682
LeftToes  1.06245e-005 4.65856e-005 -8.18503e-006
309
root  21.4848 38.4597 -0.795929 -24.7463 78.8589 -24.0432
RightUpLeg  -19.0436 -16.2368 7.22415
RightLeg  29.9915 -2.61259 -1.88648
RightFoot  -9.91456 -0.000380867 -5.30397
RightToes  0.000482159 0.542163 -0.142577
Spine  23.9418 -3.59814 11.2417
Spine1  12.7035 -1.97664 2.07933
HEad  9.57246 3.21535 -6.8607
LeftShoulder1  9.16586 -13.7193 -46.4259
LeftArm  -3.90327 4.60113 -28.4592
LeftForeArm  18.3802 -21.9589 -4.00253
LeftHand  -0.25398 0.0180481 5.50724
RightShoulder  5.90852 10.8398 35.2252
RightArm  -2.22981 3.04967 30.5405
RightForeArm  0.186169 18.9396 5.47522
RightHand  -0.795731 1.48707 -13.5809
LeftUpLeg  -23.2375 8.85998 6.32011
LeftLeg  64.1865 1.78714 4.64297
LeftFoot  -0.497094 0.36497 -3.76593
LeftToes  1.06245e-005 4.65856e-005 -8.18503e-006
310
root  22.6802 38.7668 -0.411143 -20.2483 78.8777 -19.5498
RightUpLeg  -16.0997 -15.9776 6.01891
RightLeg  28.4542 -2.56202 -1.75351
RightFoot  -11.2123 -0.070801 -4.53493
RightToes  0.000482159 0.542163 -0.142577
Spine  24.3706 -3.13348 10.4146
Spine1  12.5609 -1.60133 1.48647
HEad  9.15399 2.84143 -6.86876
LeftShoulder1  9.17862 -13.8392 -46.1615
LeftArm  -4.0183 4.52917 -28.0826
LeftForeArm  19.0428 -22.0011 -3.96658
LeftHand  -0.25398 0.0180481 5.50724
RightShoulder  5.77532 10.6855 34.7427
RightArm  -1.63945 8.31444 30.0836
RightForeArm  -3.29421 20.4133 5.33798
RightHand  -0.941867 2.0045 -14.9539
LeftUpLeg  -26.7621 10.1087 4.00361
LeftLeg  57.5862 2.90892 5.45433
LeftFoot  -2.00485 0.163888 -1.88298
LeftToes  1.06245e-005 4.65856e-005 -8.18503e-006
311
root  23.8444 38.9297 -0.0624805 -16.5907 78.7456 -15.8754
RightUpLeg  -13.6647 -15.4481 5.003
RightLeg  27.8467 -2.58051 -1.72483
RightFoot  -12.5017 -0.128015 -4.21353
RightToes  0.000482159 0.542163 -0.142577
Spine  24.8824 -2.70441 9.9689
Spine1  12.4664 -1.14346 0.838859
HEad  8.57932 2.22324 -6.96268
LeftShoulder1  9.29414 -14.068 -46.1332
LeftArm  -3.98343 4.17026 -27.4514
LeftForeArm  19.6906 -21.9481 -3.93803
LeftHand  -0.25398 0.0180481 5.50724
RightShoulder  5.61988 10.5907 33.9239
RightArm  -1.77038 13.2959 29.7954
RightForeArm  -5.95714 21.503 5.31163
RightHand  -1.00784 2.13398 -15.7071
LeftUpLeg  -28.772 11.8954 1.82146
LeftLeg  47.9546 3.74805 4.89539
LeftFoot  -3.52743 0.18983 -2.48904
LeftToes  1.06245e-005 4.65856e-005 -8.18503e-006
312
root  25.0126 38.9436 0.256196 -14.768 78.3957 -14.2212
RightUpLeg  -11.742 -14.5521 4.53497
RightLeg  27.9994 -3.03318 -1.99332
RightFoot  -14.317 -0.207948 -4.29329
RightToes  0.000482159 0.542163 -0.142577
Spine  25.2166 -2.37796 10.1456
Spine1  12.5946 -0.604967 -0.0139143
HEad  7.75722 1.52872 -6.88077
LeftShoulder1  9.42246 -14.3379 -46.0609
LeftArm  -3.97694 3.56672 -26.7806
LeftForeArm  20.012 -21.8487 -3.92854
LeftHand  -0.25398 0.0180481 5.50724
RightShoulder  5.47962 10.5893 32.9376
RightArm  -2.47199 18.0167 29.4737
RightForeArm  -6.80663 22.2065 5.30051
RightHand  -1.02861 2.27597 -15.74
LeftUpLeg  -29.5771 14.7586 -0.377908
LeftLeg  35.5826 3.63843 3.34719
LeftFoot  -3.58727 0.302981 -4.13408
LeftToes  1.06245e-005 4.65856e-005 -8.18503e-006
